<svg id="Layer_1" data-name="Layer 1" xmlns="http://www.w3.org/2000/svg" viewBox="0 0 17.04 10.65"><defs><style>.cls-1{fill:#181a19;}</style></defs><title>hamburger</title><path class="cls-1" d="M16,2.13H5.32A1.07,1.07,0,0,1,5.32,0H16a1.07,1.07,0,0,1,0,2.13Zm-14.91,0A1.07,1.07,0,1,1,2.13,1.07,1.06,1.06,0,0,1,1.07,2.13ZM16,6.39H5.32a1.07,1.07,0,0,1,0-2.13H16a1.07,1.07,0,1,1,0,2.13Zm-14.91,0A1.07,1.07,0,1,1,2.13,5.33,1.06,1.06,0,0,1,1.07,6.39ZM16,10.65H5.32a1.06,1.06,0,0,1,0-2.13H16a1.06,1.06,0,1,1,0,2.13Zm-14.91,0A1.06,1.06,0,1,1,2.13,9.59a1.06,1.06,0,0,1-1.06,1.07Z"/></svg>