<svg id="Layer_1" data-name="Layer 1" xmlns="http://www.w3.org/2000/svg" viewBox="0 0 17.61 15.58"><defs><style>.cls-1{fill:#181a19;fill-rule:evenodd;}</style></defs><title>person</title><path class="cls-1" d="M13.75,15.58a3.86,3.86,0,1,1,3.85-3.86,3.86,3.86,0,0,1-3.85,3.86Zm.55-4.41M11.17,6.61A4.48,4.48,0,0,1,10,8.41l0,.15a5,5,0,0,0,.61,6.94L0,15.54s-.08-2.19.4-2.65,1-1.29,3.52-1.66,2.61-1.72,2.7-1.68c0-.51-.06-1.22-.06-1.22A3.39,3.39,0,0,1,5.17,6.65c-.82-.33-.71-.54-.79-1,0,0,.09-1.73.65-1.69,0,0,.45,0,.36-.4a6.52,6.52,0,0,1,0-1.24c0-.44.23-1.63,1.16-1.8s.21-.09.52-.13S6.9.19,7.47.19L8.39,0C9,0,9.33.8,9.64.84s.11-.14.74,0c.93.17.66,1.44.7,1.87a2.46,2.46,0,0,1,0,1c-.09.4.67.35.67.35.66,0,.38,1.69.38,1.69-.1.45-.34.5-1,.89Z"/></svg>